<?xml version="1.0" standalone="no"?>
<!DOCTYPE svg PUBLIC "-//W3C//DTD SVG 20010904//EN"
 "http://www.w3.org/TR/2001/REC-SVG-20010904/DTD/svg10.dtd">
<svg version="1.0" xmlns="http://www.w3.org/2000/svg"
 width="603.000000pt" height="603.000000pt" viewBox="0 0 603.000000 603.000000"
 preserveAspectRatio="xMidYMid meet">
<metadata>
Created by potrace 1.14, written by Peter Selinger 2001-2017
</metadata>
<g transform="translate(0.000000,603.000000) scale(0.100000,-0.100000)"
fill="#000000" stroke="none">
<path d="M1549 4296 c-117 -33 -240 -127 -298 -230 -48 -85 -64 -155 -59 -271
3 -96 6 -107 45 -186 155 -311 557 -374 791 -124 56 59 116 157 346 564 46 83
104 169 135 203 l53 58 -483 -1 c-357 -1 -496 -4 -530 -13z"/>
<path d="M2838 4287 c-154 -53 -268 -173 -315 -330 -21 -73 -18 -207 6 -287
20 -62 438 -801 458 -807 4 -2 179 293 388 654 383 663 407 702 462 761 l31
32 -481 0 c-476 -1 -483 -1 -549 -23z"/>
<path d="M4150 4287 c-132 -45 -226 -127 -286 -250 -61 -126 -66 -277 -13
-396 11 -25 101 -186 200 -358 100 -172 191 -342 204 -378 12 -37 24 -68 26
-70 7 -6 466 798 479 837 51 163 15 347 -95 475 -120 140 -340 200 -515 140z"/>
<path d="M2300 3598 c-106 -186 -176 -266 -293 -336 -129 -78 -310 -109 -452
-79 -38 8 -71 14 -72 13 -8 -7 460 -798 494 -836 91 -102 206 -152 353 -154
77 -1 108 4 161 23 86 31 165 86 211 146 43 57 188 298 188 313 0 6 -106 194
-237 419 -163 282 -246 435 -268 496 l-32 89 -53 -94z"/>
<path d="M3648 3669 c-9 -13 -140 -239 -292 -502 l-276 -478 247 -426 c158
-274 256 -453 272 -500 13 -40 25 -72 26 -70 19 22 465 806 479 842 29 73 29
248 -1 323 -12 28 -104 195 -204 370 -106 182 -195 349 -210 391 -26 74 -26
74 -41 50z"/>
<path d="M2949 2463 c-63 -112 -127 -199 -186 -254 -143 -132 -347 -190 -543
-155 -46 8 -85 14 -86 13 -1 -1 103 -181 230 -401 258 -445 284 -480 409 -541
270 -132 589 6 677 293 28 89 27 206 -3 292 -21 62 -445 809 -459 810 -3 0
-21 -26 -39 -57z"/>
</g>
</svg>
