<?xml version="1.0" standalone="no"?>
<!DOCTYPE svg PUBLIC "-//W3C//DTD SVG 20010904//EN"
 "http://www.w3.org/TR/2001/REC-SVG-20010904/DTD/svg10.dtd">
<svg version="1.0" xmlns="http://www.w3.org/2000/svg"
 width="603.000000pt" height="603.000000pt" viewBox="0 0 603.000000 603.000000"
 preserveAspectRatio="xMidYMid meet">
<metadata>
Created by potrace 1.14, written by Peter Selinger 2001-2017
</metadata>
<g transform="translate(0.000000,603.000000) scale(0.100000,-0.100000)"
fill="#000000" stroke="none">
<path d="M2785 5864 c-16 -2 -73 -9 -125 -15 -513 -57 -1036 -280 -1460 -622
-218 -176 -477 -468 -623 -705 -373 -603 -514 -1314 -397 -2002 206 -1206
1150 -2152 2350 -2354 245 -41 587 -50 820 -21 1240 154 2229 1066 2475 2281
45 223 58 374 52 639 -7 334 -42 539 -141 840 -144 433 -370 799 -696 1125
-468 469 -1069 756 -1726 825 -127 13 -444 18 -529 9z m-205 -1502 c0 -5 -11
-19 -25 -32 -40 -37 -100 -134 -255 -405 -222 -390 -250 -426 -383 -490 -193
-94 -405 -58 -558 94 -243 244 -175 639 137 788 42 20 98 37 135 42 84 11 949
13 949 3z m1310 2 c0 -3 -22 -30 -49 -60 -26 -31 -60 -76 -74 -102 -105 -191
-744 -1283 -752 -1284 -11 -2 -364 601 -426 727 -96 196 -68 412 72 560 87 92
175 138 294 154 69 10 935 14 935 5z m532 -9 c114 -15 269 -128 330 -241 62
-114 75 -267 35 -384 -17 -50 -310 -572 -460 -819 l-20 -33 -17 53 c-22 72
-35 95 -235 444 -95 165 -180 323 -190 350 -23 68 -30 178 -16 248 25 118 115
250 216 317 67 45 213 82 285 74 14 -2 46 -6 72 -9z m-1983 -775 c8 -14 117
-205 244 -425 127 -220 231 -407 231 -415 0 -24 -155 -279 -201 -331 -181
-201 -514 -203 -705 -3 -32 33 -504 832 -496 839 2 1 39 -4 83 -12 200 -36
402 27 554 172 52 50 93 101 128 162 29 48 64 108 79 133 l26 44 22 -69 c12
-39 28 -81 35 -95z m1265 128 c10 -54 55 -140 236 -454 95 -163 181 -322 193
-353 29 -80 29 -235 0 -309 -24 -58 -474 -842 -484 -842 -4 0 -10 15 -13 32
-10 56 -56 141 -292 548 -125 217 -228 401 -228 410 -1 17 565 1000 575 1000
4 0 10 -15 13 -32z m-457 -1528 c116 -201 218 -387 228 -415 57 -167 13 -355
-114 -488 -98 -103 -202 -147 -346 -147 -144 0 -285 62 -368 163 -35 42 -488
819 -482 825 2 2 30 -2 62 -9 81 -17 216 -14 293 6 180 47 309 153 424 347 60
101 71 115 81 100 6 -9 106 -181 222 -382z"/>
</g>
</svg>
