<?xml version="1.0" encoding="UTF-8"?>
<svg id="Layer_1" data-name="Layer 1" xmlns="http://www.w3.org/2000/svg" viewBox="0 0 1612.71 595.76">
  <defs>
    <style>
      .cls-1 {
        fill: none;
      }

      .cls-1, .cls-2, .cls-3 {
        stroke-width: 0px;
      }

      .cls-2 {
        fill: #212d3f;
      }

      .cls-3 {
        fill: #fff;
      }
    </style>
  </defs>
  <g>
    <path class="cls-2" d="m795.88,237.24c7.93,4.65,14.12,11.12,18.59,19.41,4.46,8.29,6.7,17.72,6.7,28.29v89.92h-44.28v-79.53c0-7.83-2.23-14.21-6.7-19.13-4.47-4.92-10.25-7.38-17.36-7.38s-13.03,2.37-17.77,7.11c-4.74,4.74-7.11,10.57-7.11,17.49v81.45h-46.46v-141.3h46.46v15.58c4.37-5.83,10.16-10.43,17.36-13.8,7.2-3.37,15.07-5.06,23.64-5.06,10.02,0,19,2.32,26.92,6.97Z"/>
    <path class="cls-2" d="m946.88,237.65c9.66,4.92,17.22,11.98,22.69,21.18,5.47,9.2,8.2,19.91,8.2,32.11v83.91h-44.55v-12.3c-4.92,4.92-10.84,8.75-17.77,11.48-6.93,2.73-14.03,4.1-21.32,4.1-10.02,0-19.09-1.91-27.19-5.74-8.11-3.83-14.49-9.16-19.13-15.99-4.65-6.83-6.97-14.62-6.97-23.37s2.6-17.22,7.79-24.32c5.19-7.11,12.3-12.66,21.32-16.67,9.02-4.01,19.08-6.01,30.2-6.01s21.77,2.28,33.07,6.83v-1.91c0-7.11-2.64-12.85-7.93-17.22-5.29-4.37-12.94-6.56-22.96-6.56-11.48,0-23.23,3.01-35.26,9.02l-14.76-29.79c21.5-10.75,42.09-16.13,61.77-16.13,12.21,0,23.14,2.46,32.8,7.38Zm-23.09,105.23c5.37-3.1,8.52-7.29,9.43-12.57v-9.84c-7.84-3.64-16.67-5.47-26.51-5.47-6.2,0-11.39,1.6-15.58,4.78-4.19,3.19-6.29,7.15-6.29,11.89s1.91,8.57,5.74,11.48c3.83,2.92,8.65,4.37,14.49,4.37,7.11,0,13.35-1.55,18.72-4.65Z"/>
    <path class="cls-2" d="m1139.29,239.7c9.84,6.29,17.53,15.03,23.1,26.24,5.56,11.21,8.34,23.91,8.34,38.13s-2.78,26.97-8.34,38.26c-5.56,11.3-13.26,20.09-23.1,26.38-9.84,6.29-20.96,9.43-33.34,9.43-9.48,0-18.18-1.87-26.1-5.6-7.93-3.73-14.72-9.06-20.36-15.99v18.31h-46.19v-191.04h46.19v68.05c5.65-6.92,12.44-12.25,20.36-15.99,7.93-3.73,16.62-5.6,26.1-5.6,12.39,0,23.5,3.14,33.34,9.43Zm-22.82,89.92c6.47-6.65,9.7-15.17,9.7-25.55s-3.24-18.63-9.7-25.28c-6.47-6.65-14.72-9.98-24.73-9.98-9.48,0-17.22,3.33-23.23,9.98-6.01,6.65-9.02,15.08-9.02,25.28s3.01,18.91,9.02,25.55c6.01,6.65,13.76,9.98,23.23,9.98,10.02,0,18.27-3.32,24.73-9.98Z"/>
    <path class="cls-2" d="m1196.14,183.8h46.19v191.04h-46.19v-191.04Z"/>
    <path class="cls-2" d="m1278.68,209.09c-4.74-4.83-7.11-10.61-7.11-17.36s2.37-12.21,7.11-16.95c4.74-4.74,10.57-7.11,17.49-7.11,6.56,0,12.21,2.42,16.95,7.24,4.74,4.83,7.11,10.43,7.11,16.81,0,6.74-2.37,12.53-7.11,17.36-4.74,4.83-10.39,7.24-16.95,7.24-6.93,0-12.76-2.41-17.49-7.24Zm-6.01,24.46h46.46v141.3h-46.46v-141.3Z"/>
    <path class="cls-2" d="m1404.95,233.55h29.24v36.9h-29.24v104.4h-44.28v-104.4h-18.86v-36.9h18.86v-10.11c0-13.3,4.19-24.19,12.57-32.66,8.38-8.47,19.22-12.71,32.52-12.71,6.01,0,12.16,1.23,18.45,3.69,6.29,2.46,11.52,5.7,15.72,9.7l-9.02,27.61c-1.46-1.46-3.42-2.6-5.88-3.42-2.46-.82-4.97-1.23-7.52-1.23-3.65,0-6.65,1.41-9.02,4.24-2.37,2.83-3.55,6.52-3.55,11.07v3.83Z"/>
    <path class="cls-2" d="m1470.54,421.18c-7.47-1.91-13.76-4.33-18.86-7.24l9.57-30.61c8.56,4.74,14.94,7.11,19.13,7.11,3.46,0,6.74-.82,9.84-2.46,3.1-1.64,5.56-3.83,7.38-6.56l2.19-4.92-57.94-142.94h47.56l33.07,93.2,31.16-93.2h47.01l-55.76,145.4c-5.47,14.39-12.85,25.51-22.14,33.34-9.29,7.83-19.77,11.75-31.43,11.75-6.38,0-13.3-.96-20.77-2.87Z"/>
  </g>
  <rect class="cls-1" x="10.17" y="10.68" width="1591.85" height="576.17"/>
  <g>
    <path class="cls-2" d="m587.47,300.03c0,158.66-128.61,287.27-287.27,287.27S12.94,458.69,12.94,300.03,141.55,12.77,300.21,12.77s287.27,128.6,287.27,287.26"/>
    <g>
      <g>
        <path class="cls-3" d="m247.86,380.95c.42-.1.84-.2,1.26-.31-.52.13-1.04.26-1.57.38.1-.02.2-.05.3-.07Z"/>
        <path class="cls-2" d="m249.12,380.64c-.42.11-.84.21-1.26.31-.1.02-.2.05-.3.07.52-.12,1.05-.24,1.57-.38h0Z"/>
      </g>
      <g>
        <path class="cls-3" d="m250.37,380.31c.13-.04.27-.08.4-.11-.36.1-.71.2-1.07.29.22-.06.45-.12.67-.18Z"/>
        <path class="cls-2" d="m250.77,380.2c-.36.1-.71.2-1.07.29.22-.06.45-.12.67-.18.13-.04.27-.08.4-.11h0Z"/>
      </g>
      <g>
        <path class="cls-3" d="m380.99,186.71l3.48-6c-1.28,1.92-2.45,3.92-3.48,6Z"/>
        <path class="cls-2" d="m384.47,180.72c-1.28,1.92-2.45,3.92-3.48,6l3.48-6h0Z"/>
      </g>
      <g>
        <path class="cls-3" d="m280.46,291.2l-13.05-22.55,12.63,21.83.39.69s7.4,12.77,7.4,12.77l12.62,21.8-18.11-31.29-1.88-3.25Z"/>
        <path class="cls-2" d="m267.41,268.65l12.63,21.83.39.69s7.4,12.77,7.4,12.77l12.62,21.8-18.11-31.29-1.88-3.25-13.05-22.55h0Z"/>
      </g>
      <g>
        <path class="cls-3" d="m253.09,379.48c.25-.08.51-.17.76-.26.06-.02.12-.04.18-.07-.36.13-.73.25-1.09.37.05-.02.1-.03.15-.05Z"/>
        <path class="cls-2" d="m254.03,379.15c-.36.13-.73.25-1.09.37.05-.02.1-.03.15-.05.25-.08.51-.17.76-.26.06-.02.12-.04.18-.07h0Z"/>
      </g>
      <g>
        <path class="cls-3" d="m225.73,381.61c.67.11,1.34.21,2.02.29-.34-.05-.69-.1-1.03-.15-.33-.05-.66-.09-.99-.14Z"/>
        <path class="cls-2" d="m225.73,381.61c.67.11,1.34.21,2.02.29-.34-.05-.69-.1-1.03-.15-.33-.05-.66-.09-.99-.14h0Z"/>
      </g>
      <g>
        <polygon class="cls-3" points="251.34 240.9 267.41 268.65 251.37 240.94 251.34 240.9"/>
        <polygon class="cls-2" points="251.34 240.9 267.41 268.65 251.37 240.94 251.34 240.9 251.34 240.9"/>
      </g>
      <g>
        <path class="cls-3" d="m244.66,381.59s.01,0,.02,0c-.09.02-.18.03-.27.04.08-.01.17-.02.25-.04Z"/>
        <path class="cls-2" d="m244.68,381.59c-.07.01-.15.02-.22.03.07-.01.14-.02.2-.03,0,0,.01,0,.02,0h0Zm-.22.03s-.03,0-.05,0c.02,0,.03,0,.05,0h0Z"/>
      </g>
      <g>
        <path class="cls-3" d="m350.53,412.28c-.69-1.3-1.43-2.58-2.21-3.82l2.21,3.82Z"/>
        <path class="cls-2" d="m348.32,408.46l2.21,3.82c-.69-1.3-1.43-2.58-2.21-3.82h0Z"/>
      </g>
      <g>
        <path class="cls-3" d="m258.14,377.51c.18-.08.36-.16.54-.24-.28.13-.55.25-.83.37.1-.04.19-.08.29-.12Z"/>
        <path class="cls-2" d="m258.68,377.27c-.09.04-.17.08-.26.12.09-.04.17-.08.26-.12h0Zm-.26.12c-.17.08-.34.15-.52.23.08-.03.16-.07.23-.1.09-.04.19-.08.28-.13h0Zm-.52.23s-.04.02-.05.02c.02,0,.04-.02.05-.02h0Z"/>
      </g>
      <g>
        <path class="cls-3" d="m286.73,349.43c-.17.26-.34.53-.5.79.2-.22.38-.48.5-.79Z"/>
        <path class="cls-2" d="m286.73,349.43c-.17.26-.34.53-.5.79.2-.22.38-.48.5-.79h0Z"/>
      </g>
      <g>
        <path class="cls-3" d="m262.54,375.33s.04-.03.06-.04c-.07.04-.14.08-.21.12.05-.03.1-.05.15-.08Z"/>
        <path class="cls-2" d="m262.6,375.29c-.07.04-.14.08-.21.12.05-.03.1-.05.15-.08.02-.01.04-.03.06-.04h0Z"/>
      </g>
      <g>
        <path class="cls-3" d="m259.46,376.92c.28-.13.55-.27.82-.41-.41.2-.83.41-1.25.6.14-.06.28-.12.42-.19Z"/>
        <path class="cls-2" d="m260.29,376.51c-.41.2-.83.41-1.25.6.14-.06.28-.12.42-.19.28-.13.55-.27.83-.41h0Z"/>
      </g>
      <g>
        <path class="cls-3" d="m256.7,378.14c.16-.07.31-.14.47-.2-.4.17-.8.33-1.2.49.24-.09.49-.19.73-.29Z"/>
        <path class="cls-2" d="m257.17,377.93c-.4.17-.8.33-1.2.49.24-.09.49-.19.73-.29.16-.07.31-.14.47-.2h0Z"/>
      </g>
      <path class="cls-2" d="m317.51,296.4c-.14.23-.28.46-.41.69-.02.03-.04.06-.05.1.15-.27.31-.53.46-.79h0Zm-.46.79s0,0,0,0h0s0,0,0,0h0Zm0,0h0c-.14.24-.27.49-.41.74.14-.25.28-.49.42-.74h0Z"/>
      <g>
        <path class="cls-3" d="m350.53,412.28c4.16,7.88,6.5,16.84,6.5,26.36,0-9.51-2.35-18.48-6.49-26.35h-.01Z"/>
        <path class="cls-2" d="m350.53,412.28c4.1,7.77,6.44,16.6,6.5,25.97-.06-9.37-2.4-18.2-6.49-25.96h-.01Zm6.5,25.97s0,.02,0,.03c0,0,0-.02,0-.03h0Zm0,.03c0,.12,0,.24,0,.36,0-.12,0-.24,0-.36h0Z"/>
      </g>
      <g>
        <path class="cls-3" d="m380.24,188.33c.25-.54.49-1.09.76-1.62-.12.24-.24.49-.35.73-.14.29-.26.6-.4.89Z"/>
        <path class="cls-2" d="m380.99,186.71s0,.02-.01.03c0,0,0-.02.01-.03h0Zm-.01.03c-.12.23-.23.47-.34.7-.14.29-.26.59-.4.88.24-.53.48-1.06.74-1.59h0Zm-.74,1.59s0,0,0,0h0Z"/>
      </g>
      <g>
        <path class="cls-3" d="m251.47,239.83c-.09-.16-.18-.31-.27-.47.04.08.08.15.12.23.05.09.1.16.15.24Z"/>
        <path class="cls-2" d="m251.2,239.36s0,0,0,0c0,0,0,0,0,0h0Zm0,0c.04.07.08.15.12.22.05.09.1.16.15.24-.09-.16-.18-.31-.27-.46h0Z"/>
      </g>
      <g>
        <path class="cls-3" d="m414.75,296.11l.99,1.73c-.31-.59-.65-1.16-.99-1.73Z"/>
        <path class="cls-2" d="m414.75,296.11l.99,1.73c-.31-.59-.65-1.16-.99-1.73h0Z"/>
      </g>
      <g>
        <polygon class="cls-3" points="398.9 268.65 381.82 239.05 381.82 239.05 398.9 268.65"/>
        <polygon class="cls-2" points="381.82 239.05 398.9 268.65 381.82 239.05 381.82 239.05 381.82 239.05"/>
      </g>
      <g>
        <path class="cls-3" d="m300.42,491.26c-18.17,0-34.82-9.19-44.54-24.59l-1.99-3.45.07.14c-.22-.38-1.74-3.02-15.46-26.72,0,0-33.23-57.43-33.79-58.39.11.06.36.21.38.22,0,0,.09.05.1.06.67.38,1.34.74,2.03,1.1.67.34,1.28.64,1.91.94l.61.28c.47.22.94.42,1.4.62l.59.25c.66.28,1.32.54,1.98.79,0,0,.62.24.8.3.58.21,1.16.4,1.74.59l.75.24c.21.07.43.14.65.21.46.14.93.27,1.4.4,0,0,.31.08.31.08.5.13,1,.27,1.51.39.39.09.76.18,1.14.26.74.16,1.5.31,2.25.45l.81.14c.71.12,1.43.22,2.16.32.26.04.57.08.89.12.06,0,.11.01.17.02,1.01.11,2.04.2,3.06.27,1.31.08,2.55.13,3.77.13.56,0,1.13-.01,1.69-.03h.27c.47-.03.96-.05,1.46-.08.26-.01.53-.03.8-.05l1.26-.1c.47-.04.94-.09,1.41-.15,0,0,.2-.02.23-.02.49-.06.97-.12,1.45-.19.45-.06.91-.13,1.37-.21,0,0,.26-.04.3-.05,1.01-.17,2.05-.38,3.07-.61l.24-.06c.53-.12.99-.23,1.44-.35l1.32-.35s.59-.17.63-.18c.03,0,.15-.05.18-.06.64-.19,1.3-.39,1.96-.61.05-.01.14-.04.22-.07.21-.07.49-.16.77-.26.03-.01.15-.05.18-.07.6-.21,1.2-.43,1.79-.66,0,0,.84-.33,1.07-.42l1.56-.68s1.28-.58,1.4-.64c.22-.1.43-.21.63-.31,0,0,.34-.17.36-.18.2-.1.46-.23.72-.36l.62-.32c.28-.15.98-.53.98-.53h-.02s.1-.05.15-.08c3.58-1.99,6.94-4.32,10-6.93l.21-.19c5.8-5.02,9.75-11.29,13.57-17.36l1.05-1.67c.35-.44.65-.92.88-1.43l10.11-17.45,44.34,76.61c.03.05.05.1.07.14l2.17,3.75c3.93,7.47,6,15.91,6,24.42s-2.02,16.84-6.01,24.43l-2.1,3.64c-9.72,15.37-26.35,24.55-44.5,24.55Z"/>
        <path class="cls-2" d="m300.44,341.7l25.66,44.33,15.17,26.21c.04.08.08.15.13.23l2.13,3.68c3.65,6.98,5.51,14.54,5.51,22.49s-1.86,15.51-5.52,22.5l-2.02,3.5c-8.99,14.17-24.33,22.62-41.08,22.62s-32.12-8.46-41.1-22.64l-1.97-3.4h0c-.66-1.15-3.34-5.79-15.38-26.58l-27.56-47.64c.2.07.4.13.6.2.13.04.26.08.39.12l.17.05s.03.01.05.02l.14.04.09.03c.22.07.44.14.66.21.5.15.99.29,1.49.42.11.03.22.06.32.08.54.15,1.08.29,1.64.42.4.1.8.19,1.19.27.76.17,1.55.33,2.41.48l.19.04c.22.04.45.08.66.12.68.11,1.4.22,2.25.33.34.05.68.1,1.02.13.07,0,.15.02.22.02,1.04.12,2.12.21,3.2.28,1.4.09,2.72.13,4.03.13.6,0,1.2-.01,1.81-.03h.18s.08,0,.08,0c.53-.02,1.06-.05,1.62-.08.27-.02.53-.03.8-.05.15-.01.3-.02.45-.04h.17s.14-.03.14-.03c.19-.02.39-.03.58-.05.51-.05,1.02-.1,1.49-.15h.09s.06-.02.09-.02c0,0,.02,0,.03,0,.01,0,.02,0,.04,0h0s.03,0,.05,0c.51-.06,1.02-.12,1.5-.19.49-.07.98-.14,1.5-.23h-.04c.11,0,.21-.02.36-.05,0,0,.01,0,.02,0,1.08-.18,2.17-.4,3.24-.64l.27-.06.09-.02c.48-.11.96-.23,1.44-.35.16-.04.32-.08.48-.13l.17-.05.18-.05c.2-.05.39-.1.59-.16l.42-.12-2.17-7.7,2.23,7.68.13-.04c.09-.03.19-.06.28-.09.67-.2,1.33-.4,1.97-.61.08-.03.16-.05.23-.07.29-.1.59-.2.89-.3.09-.03.17-.06.26-.1.62-.22,1.23-.45,1.83-.68l.2-.08.08-.03.1-.04c.26-.1.52-.2.79-.31.15-.06.31-.13.46-.2l.1-.05c.23-.1.45-.19.68-.29l.09-.04.05-.02.25-.11.36-.16.2-.09s.04-.02.07-.03l.09-.04c.09-.04.18-.08.27-.12l.08-.04c.15-.07.3-.13.46-.21.25-.12.5-.24.74-.37l.24-.12c.27-.13.54-.27.8-.41l.08-.04c.2-.11.41-.21.62-.32.28-.15.57-.3.83-.44l.21-.11c.06-.03.13-.07.19-.11,3.79-2.11,7.35-4.58,10.59-7.35.09-.08.18-.16.29-.26,6.2-5.36,10.31-11.89,14.28-18.2.31-.49.62-.99.93-1.48.46-.59.85-1.23,1.17-1.91l6.56-11.31m0-15.96l-13.7,23.64-.02.05c-.13.32-.3.57-.5.79-4.12,6.5-8.08,13.26-13.95,18.33-.09.07-.17.15-.25.22-2.91,2.48-6.07,4.67-9.42,6.52-.02.01-.04.03-.06.04-.05.03-.1.05-.15.08-.25.14-.5.27-.75.4-.18.09-.36.19-.54.28-.26.13-.52.27-.78.4-.02,0-.03.02-.05.02-.27.14-.55.28-.83.41-.14.07-.28.13-.42.19-.12.06-.24.11-.36.16-.18.08-.36.16-.54.24-.1.04-.19.08-.29.12-.23.1-.45.2-.68.29-.16.07-.31.14-.47.2-.24.1-.49.19-.73.29-.09.04-.19.07-.28.11-.55.21-1.11.42-1.66.62-.06.02-.12.05-.18.07-.25.09-.51.17-.76.26-.05.02-.1.03-.15.05-.61.2-1.23.4-1.85.58-.06.02-.12.04-.18.05-.05.01-.09.03-.14.04-.13.04-.27.08-.4.11-.22.06-.45.12-.67.18-.19.05-.38.1-.57.15-.42.11-.84.21-1.26.31-.1.02-.2.05-.3.07-.95.21-1.91.4-2.87.57,0,0,0,0,0,0,0,0-.01,0-.02,0-.08.01-.17.02-.25.04-.43.07-.86.14-1.29.2-.45.06-.91.12-1.36.17,0,0,0,0-.01,0,0,0,0,0,0,0-.06,0-.12.01-.19.02-.44.05-.89.1-1.33.14-.21.02-.42.04-.63.05-.19.02-.37.03-.56.05-.25.02-.5.03-.75.05-.45.03-.91.05-1.36.07-.07,0-.15,0-.22,0-.52.01-1.05.03-1.57.03-1.18,0-2.35-.04-3.52-.12-1.01-.06-2-.15-3-.27h-.03c-.28-.03-.56-.07-.83-.11-.68-.09-1.35-.18-2.02-.29-.25-.04-.5-.09-.76-.14-.71-.13-1.41-.27-2.11-.42-.35-.08-.7-.16-1.05-.24-.48-.12-.95-.24-1.43-.37-.03,0-.06-.02-.1-.02-.06-.02-.13-.03-.19-.05-.44-.12-.88-.24-1.31-.37-.2-.06-.39-.12-.58-.19-.07-.02-.14-.04-.2-.06-.17-.06-.34-.11-.51-.16-.54-.18-1.08-.36-1.62-.55-.25-.09-.5-.19-.75-.28-.62-.23-1.24-.48-1.85-.74-.19-.08-.37-.16-.56-.24-.44-.19-.88-.38-1.31-.58-.19-.09-.38-.17-.57-.26-.58-.28-1.16-.56-1.73-.85-.02,0-.03-.02-.05-.03-.64-.33-1.27-.67-1.89-1.02-.03-.02-.05-.03-.08-.05,0,0,0,0,0,0-.52-.29-1.03-.6-1.54-.91-.24-.14-.47-.29-.7-.44-.28-.18-.56-.36-.83-.54-.67-.44-1.34-.89-1.99-1.36-.02-.01-.04-.03-.06-.04,0,0,0,0,0,0-.22-.16-.45-.32-.67-.49-.16-.12-.32-.25-.49-.37-.27-.21-.55-.41-.82-.62,0,0,0,0,0,0-.3-.23-.59-.48-.88-.72,0,0,0,0-.01-.01,0,0,0,0,0,0-.56-.46-1.11-.93-1.66-1.41-.03-.02-.05-.04-.08-.07-.36-.32-.72-.64-1.07-.97,0,0,0,0,0,0-.24-.22-.47-.45-.71-.68-.05-.05-.1-.1-.16-.15-.41-.4-.81-.8-1.21-1.21-.13-.14-.26-.27-.39-.41-.08-.08-.16-.16-.24-.25-.58-.62-1.15-1.26-1.7-1.91,0,0,0,0,0,0-.17-.2-.33-.4-.5-.6,0,0,0,0,0,0-.43-.51-.85-1.04-1.26-1.57,0,0,0,0,0,0-.16-.21-.33-.42-.49-.64,0,0,0,0,0,0-.21-.27-.41-.55-.61-.83-.33-.45-.65-.9-.96-1.36,0,0,14.23,24.59,14.24,24.59l32.76,56.62s15.38,26.56,15.39,26.58l2.01,3.48.06.1c10.03,15.89,27.74,26.46,47.92,26.46s37.89-10.57,47.92-26.48l2.18-3.77c4.16-7.88,6.51-16.84,6.51-26.37s-2.35-18.48-6.5-26.36l-2.21-3.82-.03-.06-15.27-26.38-32.58-56.28h0Z"/>
      </g>
      <g>
        <path class="cls-3" d="m254.89,239.05c-.36-.72-2.63-5.37-3.95-9.47-1.84-5.7-2.77-11.6-2.77-17.54,0-7.8,1.66-15.29,4.94-22.27,1.3-2.79,2.85-5.46,4.61-7.96,9.86-14.02,25.96-22.38,43.07-22.38h100.72c-8.05,4.61-15.06,11.09-20.37,19.08-1.35,2.02-2.59,4.15-3.67,6.31l-14.66,25.29-62.37,107.65-45.55-78.71Z"/>
        <path class="cls-2" d="m389.06,163.42c-4.24,3.72-8.03,8.03-11.24,12.85-1.42,2.13-2.73,4.36-3.87,6.64l-14.6,25.19-32.76,56.55-26.15,45.13-11.19-19.33-1.88-3.25-13.05-22.55-15.91-27.49c-.46-.93-2.49-5.14-3.68-8.81-1.71-5.3-2.58-10.79-2.58-16.31,0-7.21,1.53-14.13,4.57-20.59,1.2-2.56,2.63-5.04,4.25-7.34,9.11-12.95,23.99-20.69,39.8-20.69h88.27m42.58-8h-130.85c-19.16,0-36.09,9.51-46.35,24.08-1.89,2.69-3.55,5.55-4.95,8.56,0,0,0,0,0,0-3.42,7.28-5.32,15.41-5.32,23.97,0,6.54,1.06,12.87,2.96,18.77,1.55,4.8,4.24,10.14,4.24,10.14l16.03,27.71,13.05,22.55,1.88,3.25,18.11,31.29,33.07-57.08,32.76-56.55,14.72-25.4c1.03-2.07,2.19-4.07,3.48-6,10.14-15.25,27.48-25.3,47.16-25.3h0Z"/>
      </g>
      <g>
        <path class="cls-3" d="m426.83,325.18c-.02-10.05-2.55-20-7.32-28.8,0,0-.28-.5-.31-.54-.33-.61-.68-1.21-1.03-1.8l-15.81-27.38-16.83-29.18c-.06-.15-.12-.29-.19-.42-4.14-7.63-6.32-16.29-6.32-25.02,0-7.7,1.63-15.1,4.83-22.03h.02s.23-.5.23-.5c.14-.3.27-.6.42-.9l3.35-5.77c9.8-14.66,26.15-23.41,43.77-23.41,29.01,0,52.62,23.6,52.62,52.62,0,8.21-1.84,16.06-5.46,23.35l-51.96,89.79Z"/>
        <path class="cls-2" d="m431.64,163.42c26.81,0,48.62,21.81,48.62,48.62,0,7.54-1.68,14.76-4.99,21.46l-3.42,5.92-14.61,25.24-27.68,47.84c-1.27-6.29-3.46-12.38-6.53-18.02-.01-.02-.02-.04-.04-.07l-.2-.36c-.03-.06-.07-.12-.11-.18-.32-.59-.67-1.2-1.06-1.84l-.07-.12s-.04-.07-.06-.11l-15.66-27.13-16.69-28.93c-.09-.19-.18-.39-.28-.57-3.82-7.05-5.84-15.04-5.84-23.11,0-7.11,1.5-13.96,4.46-20.36h.02s.24-.51.24-.51c.1-.23.21-.46.32-.68l3.21-5.54c9.06-13.49,24.14-21.53,40.37-21.53m0-8c-19.68,0-37.02,10.05-47.16,25.3l-3.48,6c-.27.53-.51,1.08-.76,1.62.14-.3.26-.6.4-.89-3.6,7.44-5.62,15.79-5.62,24.6,0,9.75,2.47,18.92,6.8,26.92v.09l17.08,29.6,15.73,27.26.02.03.1.17c.34.57.68,1.14.99,1.73l.05.08.2.36c4.36,8.03,6.83,17.22,6.83,26.98,0,8.58-1.91,16.73-5.34,24.02l13.99-24.17,32.68-56.47,14.61-25.24,3.55-6.14c3.8-7.6,5.93-16.18,5.93-25.25,0-31.27-25.35-56.62-56.62-56.62h0Z"/>
      </g>
      <g>
        <path class="cls-3" d="m380.99,186.71l-14.72,25.4,14.37-24.67c.11-.24.23-.49.35-.73Z"/>
        <path class="cls-2" d="m380.99,186.71l-14.72,25.4,14.37-24.67c.11-.24.23-.49.35-.73h0Z"/>
      </g>
      <g>
        <path class="cls-3" d="m361.03,438.64c0-9.83-2.4-19.58-6.95-28.21-.03-.05-.06-.11-.09-.16-.69-1.3-1.43-2.58-2.21-3.81-.01-.02-46.71-80.71-46.71-80.71l14.6-25.2c.17-.2.33-.42.46-.67.27-.48.54-.95.82-1.43.13-.22.23-.44.32-.67l48.47-83.66,1.28-2.2v.13c0,9.87,2.43,19.66,7.03,28.34.08.23.18.45.31.67l32.81,56.86s.14.23.14.23c0,0,1.02,1.77,1.04,1.81l.15.27c4.14,7.62,6.33,16.29,6.33,25.04,0,7.77-1.65,15.24-4.91,22.21,0,0-4.81,8.3-4.83,8.33l-13.87,23.98c-.05.07-.1.15-.14.23l-34.05,58.85c0-.08,0-.15,0-.23Z"/>
        <path class="cls-2" d="m368.26,224.64c1.2,6.05,3.27,11.93,6.13,17.39.14.35.3.69.5,1.02l17.08,29.61,15.73,27.26c.03.06.07.12.11.19l.02.03.97,1.69c.03.05.06.1.09.15l.09.17c3.83,7.06,5.85,15.06,5.85,23.13,0,7.12-1.5,13.97-4.46,20.36l-4.68,8.08s-.05.08-.07.12l-13.8,23.86c-.07.1-.13.21-.2.32l-27.82,48.08c-1.21-6.11-3.29-12.04-6.18-17.53-.04-.08-.09-.16-.13-.24-.71-1.33-1.47-2.64-2.27-3.91,0,0,0-.01-.01-.02l-15.27-26.38-30.25-52.27,13.89-23.97.06.03c.24-.44.5-.88.76-1.31.19-.31.35-.63.49-.96l15.56-26.86,27.82-48.03m12.38-37.2l-14.37,24.67-32.76,56.55-33.07,57.08,32.58,56.28,15.27,26.38.03.06c.79,1.24,1.53,2.52,2.21,3.82h.01c4.15,7.88,6.49,16.84,6.49,26.36s-2.36,18.49-6.51,26.37l15.27-26.37,32.76-56.62h.01l14.04-24.27v-.02s4.86-8.37,4.86-8.37l.03-.05h0c3.43-7.3,5.34-15.45,5.34-24.03,0-9.77-2.48-18.96-6.83-26.98l-.2-.36-.05-.08-.99-1.73-.1-.17-.02-.03-15.73-27.26-17.08-29.61h0s0-.09,0-.09c-4.34-8.01-6.8-17.18-6.8-26.92,0-8.81,2.02-17.16,5.62-24.6h0Zm-64.01,110.49c.14-.25.27-.49.41-.74l.06-.1c.13-.23.28-.46.41-.69-.3.51-.6,1.02-.88,1.53h0Z"/>
      </g>
      <g>
        <path class="cls-3" d="m317.1,297.09l-.06.1h.01s.03-.07.05-.1Z"/>
        <path class="cls-2" d="m317.1,297.09s-.02.04-.03.06l.03-.06h0Zm-.03.06l-.03.04h.01s0-.03.02-.04h0Z"/>
      </g>
      <g>
        <path class="cls-3" d="m235.12,378.41c-1.05,0-2.11-.04-3.26-.11-.94-.06-1.88-.14-2.8-.25-.05,0-.1,0-.15-.01-.2-.02-1.09-.16-1.09-.16l-.96-.14c-.16-.02-.32-.04-.48-.07l-.71-.13c-.65-.12-1.3-.25-1.95-.39-.33-.07-.66-.15-.99-.23-.43-.1-.87-.22-1.32-.34-.03,0-.15-.04-.18-.05-.5-.13-.91-.25-1.31-.37-.16-.05-1.21-.39-1.21-.39-.5-.16-1.01-.33-1.51-.51l-.7-.27c-.57-.22-1.14-.45-1.71-.68l-.52-.22c-.4-.17-.8-.35-1.21-.54l-.54-.25c-.53-.25-1.07-.51-1.6-.79-.64-.33-1.23-.65-1.81-.97,0,0-.06-.03-.08-.05h0c-.48-.27-.95-.55-1.42-.84l-.66-.41c-.25-.16-.5-.32-.76-.49-.63-.41-1.25-.83-1.86-1.27-.02-.01-.68-.49-.68-.49l-.67-.51c-.18-.14-.36-.27-.54-.41-.19-.15-.38-.3-.56-.46l-.26-.21s-.02-.01-.02-.02c-.52-.43-1.03-.87-1.53-1.31-.02-.02-.08-.07-.11-.09-.28-.25-.6-.54-.92-.83-.01-.01-.03-.03-.04-.04-.22-.21-.44-.42-.65-.62l-.1-.09c-.43-.42-.8-.79-1.17-1.17l-.53-.55c-.6-.64-1.12-1.23-1.64-1.83,0,0-.45-.55-.47-.56h0c-.4-.48-.79-.96-1.17-1.46l-.46-.6c-.19-.25-.38-.51-.57-.77-.28-.39-.55-.76-.82-1.15l-4.03-6.95-47.6-82.26c8.91,4.91,19.01,7.56,29.48,7.56h.19c3.79-.02,7.54-.37,11.18-1.06,13.15-2.48,25.32-9.37,34.27-19.41,2.09-2.34,4.12-5,6.05-7.9,2.2-3.31,3.77-6.2,4.7-8.04l.22-.45,14.28-24.65c.01,6.74,1.07,13.43,3.15,19.89,1.62,5.04,4.36,10.48,4.47,10.71.03.07.07.14.11.2,0,0,29.08,50.27,29.1,50.3.32.54,4.56,7.86,7.36,12.7l11.46,19.79s-12.57,21.7-12.59,21.73l-1.6,2.54c-3.66,5.83-7.13,11.33-11.97,15.51l-.17.15c-2.74,2.34-5.68,4.38-8.82,6.12-.01,0-.65.36-.89.48l-.5.26c-.27.14-.81.41-.83.42-.32.16-.7.34-1.09.53l-1.25.56-.49.21c-.38.16-.75.31-1.12.46l-.24.1c-.53.21-1.04.4-1.56.58-.33.12-.67.23-1.01.34-.57.19-1.14.37-1.72.54-.04.01-.3.09-.3.09-.32.09-.65.18-.99.27l-.52.14c-.5.13-.98.25-1.47.35-.87.19-1.75.37-2.61.52-.03,0-.31.05-.31.05-.4.06-.79.13-1.19.18-.42.06-.83.11-1.24.16-.01,0-.21.02-.21.02-.43.05-.84.09-1.26.13l-1.11.09c-.23.02-.46.03-.69.04-.43.03-.85.05-1.27.06h-.24c-.44.02-.93.03-1.42.03Z"/>
        <path class="cls-2" d="m237.39,224.92c.54,2.81,1.25,5.59,2.13,8.33,1.72,5.33,4.59,11.04,4.71,11.28.07.14.14.27.22.41l7.47,12.91,8.57,14.8,12.61,21.8.39.69s.05.09.08.14c.37.64,4.57,7.88,7.34,12.66l10.3,17.79-11.38,19.63s-.02.04-.04.07l-.21.33-.11.17c-.41.65-.82,1.3-1.23,1.95-3.5,5.56-6.81,10.82-11.2,14.62l-.22.19c-2.47,2.11-5.19,3.99-8.09,5.6l-.18.1c-.21.12-.43.23-.64.34-.15.08-.31.16-.46.24l-.09.05c-.19.1-.38.2-.57.29l-.04.02c-.36.18-.71.35-1.07.52l-.1.04-.21.1c-.24.11-.47.21-.72.32l-.06.03c-.17.08-.34.15-.52.23-.34.14-.68.29-1.03.42h0s-.15.06-.15.06l-.09.04c-.47.18-.95.36-1.43.53-.31.11-.62.21-.94.32-.53.18-1.06.34-1.61.5-.06.02-.13.04-.2.06l-.06.02c-.3.09-.61.17-.92.25l-.24.06-.25.07c-.45.11-.89.22-1.35.32-.78.18-1.57.33-2.4.47-.01,0-.03,0-.05,0l-.24.04c-.37.06-.73.12-1.12.17-.39.05-.77.1-1.16.15l-.2.02c-.38.04-.76.08-1.14.12l-.39.03h-.16s-.25.03-.25.03l-.24.02c-.21.02-.43.03-.67.04-.38.02-.76.04-1.13.06h-.07s-.11,0-.11,0c-.45.01-.89.02-1.34.02-.96,0-1.94-.03-3-.1-.88-.06-1.76-.13-2.6-.23-.06,0-.12-.01-.18-.02-.15-.02-.29-.04-.44-.06l-.55-.08-.47-.07c-.16-.02-.33-.05-.49-.07-.12-.02-.23-.03-.36-.05-.14-.02-.28-.05-.41-.07l-.23-.04c-.66-.12-1.25-.24-1.82-.36-.3-.07-.6-.14-.89-.21-.41-.1-.82-.21-1.22-.32l-.2-.05s-.05-.01-.06-.01c-.38-.1-.76-.21-1.13-.32-.1-.03-.2-.06-.3-.1l-.12-.04-.22-.07h-.01s-.04-.02-.04-.02h0s-.22-.07-.22-.07l-.21-.07c-.47-.15-.93-.31-1.39-.47-.1-.04-.2-.08-.3-.11l-.34-.13c-.47-.18-.98-.38-1.58-.63l-.33-.14-.14-.06c-.38-.16-.75-.33-1.13-.5l-.16-.07-.33-.15c-.5-.24-1-.48-1.51-.74h-.03c-.53-.29-1.06-.58-1.6-.88,0,0-.01,0-.02-.01-.03-.02-.06-.04-.09-.05-.44-.25-.88-.51-1.31-.78-.2-.12-.4-.25-.6-.37-.24-.15-.48-.31-.72-.46-.63-.42-1.19-.8-1.72-1.18l-.06-.05c-.19-.13-.37-.27-.56-.41l-.18-.13-.27-.2-.18-.13c-.17-.13-.33-.25-.5-.38,0,0,0,0,0,0-.17-.13-.33-.27-.49-.4l-.24-.19s-.01-.01-.02-.02l-.02-.02c-.44-.36-.91-.76-1.43-1.22-.04-.04-.08-.07-.13-.11-.29-.26-.57-.51-.84-.76,0,0-.02-.02-.03-.02-.2-.19-.4-.38-.6-.57l-.14-.13c-.35-.34-.7-.69-1.04-1.05l-.38-.39c-.06-.06-.12-.12-.19-.2-.47-.5-.95-1.05-1.44-1.61-.08-.09-.15-.18-.22-.27l-.17-.2s-.03-.03-.04-.05c-.37-.45-.73-.9-1.08-1.35h0s-.01-.02-.02-.02l-.05-.06c-.12-.15-.24-.31-.35-.46-.18-.24-.35-.47-.54-.74-.22-.31-.44-.61-.66-.93l-3.95-6.81-14.22-24.57-27.35-47.26c6.37,2.05,13.1,3.12,19.98,3.12.09,0,.18,0,.26,0,3.98-.02,7.97-.39,11.85-1.13,14.01-2.64,26.98-9.98,36.51-20.68,2.21-2.48,4.36-5.29,6.39-8.35,2.3-3.47,3.96-6.5,4.94-8.44.06-.13.13-.25.19-.37l7.97-13.76m12.1-36.86l-14.37,24.81-12.75,22.02c-.08.17-.17.35-.27.54-.93,1.84-2.45,4.59-4.47,7.63-1.6,2.41-3.51,4.99-5.7,7.45-8.22,9.22-19.38,15.76-32.02,18.14-3.37.64-6.85.97-10.4.99-.08,0-.15,0-.23,0-17.74,0-33.59-8.09-44.07-20.78l11.45,19.79,33.06,57.13,14.21,24.57,4.1,7.08c.31.46.64.91.96,1.36.2.28.4.55.61.83,0,0,0,0,0,0,.16.21.32.43.49.64,0,0,0,0,0,0,.41.53.83,1.05,1.26,1.57,0,0,0,0,0,0,.17.2.33.4.5.6,0,0,0,0,0,0,.55.65,1.12,1.29,1.7,1.91.08.08.16.16.24.25.13.14.26.27.39.41.4.41.8.82,1.21,1.21.05.05.1.1.16.15.23.23.47.45.71.68,0,0,0,0,0,0,.35.33.71.65,1.07.97.03.02.05.04.08.07.54.48,1.09.95,1.66,1.41,0,0,0,0,0,0,0,0,0,0,.01.01.29.24.58.48.88.72,0,0,0,0,0,0,.27.21.55.42.82.62.16.12.32.25.49.37.22.16.44.33.67.49,0,0,0,0,0,0,.02.01.04.03.06.04.65.47,1.32.92,1.99,1.36.28.18.55.36.83.54.23.15.47.29.7.44.51.31,1.02.62,1.54.91,0,0,0,0,0,0,.03.02.05.03.08.05.62.35,1.25.69,1.89,1.02.02,0,.03.02.05.03.57.29,1.15.58,1.73.85.19.09.38.18.57.26.43.2.87.39,1.31.58.19.08.37.16.56.24.61.25,1.22.5,1.85.74.25.09.5.19.75.28.54.19,1.08.37,1.62.55.17.06.34.11.51.16.07.02.14.04.2.06.19.06.39.13.58.19.44.13.87.25,1.31.37.06.02.13.03.19.05.03,0,.06.02.1.02.47.13.95.25,1.43.37.35.08.7.17,1.05.24.7.15,1.4.29,2.11.42.25.05.5.09.76.14.33.05.66.09.99.14.34.05.69.1,1.03.15.28.04.55.08.83.11h.03c.99.11,1.99.2,3,.27,1.16.07,2.33.12,3.52.12.53,0,1.05-.01,1.57-.03.07,0,.15,0,.22,0,.46-.02.91-.04,1.36-.07.25-.02.5-.03.75-.05.19-.01.37-.03.56-.05.21-.02.42-.03.63-.05.44-.04.89-.09,1.33-.14.06,0,.12-.01.19-.02,0,0,0,0,0,0,0,0,0,0,.01,0,.46-.05.91-.11,1.36-.17.43-.06.86-.13,1.29-.2.09-.01.18-.03.27-.04,0,0,0,0,0,0,.97-.16,1.92-.35,2.87-.57.52-.12,1.05-.24,1.57-.38.19-.05.38-.1.57-.15.36-.1.72-.19,1.07-.29.05-.01.09-.03.14-.04.06-.02.12-.04.18-.05.62-.18,1.24-.38,1.85-.58.36-.12.73-.24,1.09-.37.56-.2,1.11-.4,1.66-.62.09-.04.19-.07.28-.11.4-.16.8-.32,1.2-.49.23-.1.45-.2.68-.29.28-.12.55-.24.83-.37.12-.06.24-.11.36-.16.42-.19.83-.4,1.25-.6.02,0,.03-.02.05-.02.26-.13.52-.26.78-.4.18-.09.36-.19.54-.28.25-.13.5-.26.75-.4.07-.04.14-.08.21-.12,3.35-1.85,6.51-4.03,9.42-6.52.09-.07.17-.15.25-.22,5.87-5.07,9.83-11.83,13.95-18.33.17-.26.33-.53.5-.79l.02-.05,13.7-23.64-12.62-21.8s-7.38-12.75-7.4-12.77l-.39-.69-12.63-21.83-8.57-14.8-7.47-12.91s-2.69-5.34-4.24-10.14c-1.9-5.9-2.96-12.22-2.96-18.77,0-8.56,1.9-16.69,5.32-23.97h0Z"/>
      </g>
      <g>
        <path class="cls-3" d="m169.28,265.65c-15.91,0-30.85-7.04-40.98-19.32-7.82-9.48-12.13-21.48-12.13-33.79,0-7.87,1.68-15.43,4.99-22.48,1.31-2.81,2.88-5.51,4.65-8.04,9.96-14.15,26.21-22.59,43.48-22.59h101.44c-7.64,4.36-14.34,10.39-19.54,17.78-1.99,2.83-3.75,5.87-5.23,9.01l-27.03,46.68c-.04.08-.09.15-.12.23l-.25.5c-.69,1.35-2.15,4.09-4.23,7.23-1.72,2.59-3.52,4.94-5.36,7-7.78,8.73-18.35,14.72-29.77,16.87-3.17.6-6.42.91-9.68.92h-.21Z"/>
        <path class="cls-2" d="m258.23,163.42c-3.85,3.37-7.33,7.21-10.34,11.48-2.09,2.98-3.94,6.15-5.5,9.45l-14.19,24.51-12.75,22.02c-.09.15-.17.31-.25.47-.07.15-.15.3-.23.46-.65,1.27-2.02,3.85-4,6.83-1.61,2.43-3.3,4.63-5.01,6.56-7.19,8.07-16.97,13.61-27.53,15.6-2.93.55-5.94.84-8.94.85h-.24c-14.7,0-28.5-6.52-37.87-17.87-7.23-8.76-11.21-19.86-11.21-31.24,0-7.28,1.55-14.27,4.61-20.8,1.21-2.59,2.65-5.09,4.29-7.42,9.21-13.09,24.24-20.9,40.21-20.9h88.96m42.55-8h-131.51c-19.33,0-36.41,9.6-46.75,24.29-1.91,2.71-3.58,5.6-5,8.64-3.45,7.34-5.36,15.54-5.36,24.18,0,13.8,4.9,26.46,13.04,36.33,10.47,12.69,26.33,20.78,44.07,20.78.08,0,.15,0,.23,0,3.55-.01,7.03-.35,10.4-.99,12.63-2.38,23.8-8.92,32.02-18.14,2.19-2.46,4.1-5.05,5.7-7.45,2.02-3.04,3.53-5.79,4.47-7.63.1-.19.19-.37.27-.54l12.75-22.02,14.37-24.81s0,0,0,0c1.41-3.01,3.06-5.87,4.95-8.56,10.25-14.57,27.19-24.08,46.35-24.08h0Z"/>
      </g>
    </g>
  </g>
</svg>