<?xml version="1.0" encoding="UTF-8" standalone="no"?>
<!-- Generator: Adobe Illustrator 26.3.1, SVG Export Plug-In . SVG Version: 6.00 Build 0)  -->

<svg
   version="1.1"
   id="Layer_1"
   x="0px"
   y="0px"
   viewBox="0 0 464.50147 123.36617"
   xml:space="preserve"
   sodipodi:docname="apptainer.svg"
   width="464.50146"
   height="123.36618"
   inkscape:version="1.3 (0e150ed, 2023-07-21)"
   xmlns:inkscape="http://www.inkscape.org/namespaces/inkscape"
   xmlns:sodipodi="http://sodipodi.sourceforge.net/DTD/sodipodi-0.dtd"
   xmlns="http://www.w3.org/2000/svg"
   xmlns:svg="http://www.w3.org/2000/svg"><defs
   id="defs17" /><sodipodi:namedview
   id="namedview17"
   pagecolor="#ffffff"
   bordercolor="#000000"
   borderopacity="0.25"
   inkscape:showpageshadow="2"
   inkscape:pageopacity="0.0"
   inkscape:pagecheckerboard="0"
   inkscape:deskcolor="#d1d1d1"
   inkscape:zoom="1.0914928"
   inkscape:cx="234.08309"
   inkscape:cy="61.383823"
   inkscape:window-width="1800"
   inkscape:window-height="1097"
   inkscape:window-x="0"
   inkscape:window-y="44"
   inkscape:window-maximized="0"
   inkscape:current-layer="Layer_1" />&#10;<style
   type="text/css"
   id="style1">&#10;	.st0{fill:#231F20;}&#10;	.st1{fill:#969696;}&#10;	.st2{fill:#FC9114;}&#10;	.st3{fill:#0096D7;}&#10;	.st4{fill:#6DB413;}&#10;</style>&#10;<path
   class="st0"
   d="m 102.84118,116.125 c -0.9,-0.5 -1.5,-1.3 -2,-2.4 l -24.000003,-53.8 c -1,-2.1 -1.8,-3.9 -2.5,-5.3 -0.9,-2 -1,-2.6 -1,-3 0,-1 0.4,-1.7 1.2,-2.2 v -1.9 h -19.8 v 1.9 c 0.3,0.3 0.6,0.5 0.8,0.8 0.3,0.3 0.4,0.8 0.4,1.3 0,0.5 -0.3,1.3 -0.8,2.5 -0.5,1.1 -1.2,2.6 -2,4.4 l -23.6,53.5 c -0.4,0.8 -0.9,1.9 -1.8,3.3 -0.8,1.3 -2.1,2.1 -3.8,2.2 v 1.8 h 22.6 v -1.8 c -2.5,-0.1 -3.7,-0.9 -3.7,-2.6 0,-0.8 0.5,-2.1 1.4,-4.1 0.8,-1.6 1.7,-3.5 2.6,-5.5 11.2,4.4 23.8,4.5 35.1,0.4 0.9,2 1.7,3.7 2.4,5.1 0.8,1.6 1.2,2.9 1.2,4 0,1.1 -0.4,1.8 -1.1,2.2 -0.5,0.3 -1.1,0.5 -1.6,0.5 v 1.8 h 23.200003 v -1.8 c -1.3,-0.4 -2.4,-0.8 -3.2,-1.3 z m -51.100003,-21.5 12.6,-28.1 12.9,28.5 c -8.2,2.8 -17.2,2.7 -25.5,-0.4 z"
   id="path1" />&#10;<path
   class="st1"
   d="m 20.141177,64.225 c 0,-4.2 0.6,-8.2 1.6,-12 l -12.8000003,-5.7 c -1.7,5.7 -2.6,11.4 -2.6,17.2 -0.1,16 6.6000003,31.5 18.2000003,42.5 l 0.9,-1.6 5.2,-11.7 c -6.6,-7.8 -10.5,-17.7 -10.5,-28.7 z"
   id="path2" />&#10;<path
   class="st2"
   d="m 121.04118,46.725 -12.7,5.7 c 1,3.8 1.6,7.8 1.6,11.9 0,10.9 -3.9,20.9 -10.400003,28.7 l 5.200003,11.7 0.8,1.5 c 11.6,-11 18.3,-26.5 18.2,-42.5 0,-5.7 -0.9,-11.4 -2.7,-17 z"
   id="path3" />&#10;<path
   class="st3"
   d="m 11.741177,39.525 12.7,5.6 c 6.7,-14.2 20.5,-24.2 36.8,-25.6 V 5.4250002 c -21.3,1.4 -40.6,14.6999998 -49.5,34.0999998 z"
   id="path4" />&#10;<path
   class="st4"
   d="M 118.34118,39.625 C 109.44118,20.125 90.141177,6.7250002 68.841177,5.4250002 V 19.525 c 16.4,1.4 30.2,11.5 36.900003,25.7 z"
   id="path5" />&#10;<g
   id="g14"
   transform="translate(-14.658823,-15.575)">&#10;	<path
   class="st0"
   d="m 181.9,87.3 h -11.1 l -1.7,4.3 h -8 l 11.3,-28.5 h 8 l 11.3,28.5 h -8 z m -2.1,-5.4 -3.4,-8.7 -3.4,8.7 z"
   id="path6" />&#10;	<path
   class="st0"
   d="m 203.9,63.2 h 13.2 c 6.3,0 10.8,4 10.8,9.8 0,5.8 -4.5,9.8 -10.8,9.8 H 211 v 8.9 h -7.1 z m 12.6,13.1 c 2.4,0 4.2,-1.3 4.2,-3.3 0,-2 -1.7,-3.3 -4.2,-3.3 H 211 v 6.6 z"
   id="path7" />&#10;	<path
   class="st0"
   d="M 240.8,63.2 H 254 c 6.3,0 10.8,4 10.8,9.8 0,5.8 -4.5,9.8 -10.8,9.8 h -6.1 v 8.9 h -7.1 z m 12.6,13.1 c 2.4,0 4.2,-1.3 4.2,-3.3 0,-2 -1.7,-3.3 -4.2,-3.3 h -5.5 v 6.6 z"
   id="path8" />&#10;	<path
   class="st0"
   d="m 284.8,69.5 h -8.6 v -6.3 h 24.4 v 6.3 h -8.7 v 22.1 h -7.1 z"
   id="path9" />&#10;	<path
   class="st0"
   d="m 328.9,87.3 h -11.1 l -1.7,4.3 h -8 l 11.3,-28.5 h 8 l 11.3,28.5 h -8 z m -2.1,-5.4 -3.4,-8.7 -3.4,8.7 z"
   id="path10" />&#10;	<path
   class="st0"
   d="m 350.9,63.2 h 7.1 v 28.5 h -7.1 z"
   id="path11" />&#10;	<path
   class="st0"
   d="m 373.1,63.2 h 7.1 L 392.6,80 V 63.2 h 7.1 v 28.5 h -7.1 L 380.2,74.9 v 16.8 h -7.1 z"
   id="path12" />&#10;	<path
   class="st0"
   d="M 421.9,69.5 V 74 h 14 v 6.3 h -14 v 5 h 15.3 v 6.3 H 414.8 V 63.2 h 22.4 v 6.3 z"
   id="path13" />&#10;	<path
   class="st0"
   d="m 467.9,91.6 -6.3,-8.9 h -2.8 v 8.9 h -7.1 V 63.2 H 465 c 6.3,0 10.8,4 10.8,9.8 0,4.3 -2.6,7.7 -6.5,9.1 l 6.7,9.6 h -8.1 z m -9,-15.3 h 5.5 c 2.4,0 4.2,-1.3 4.2,-3.3 0,-2 -1.7,-3.3 -4.2,-3.3 h -5.5 z"
   id="path14" />&#10;</g>&#10;&#10;&#10;&#10;&#10;</svg>
